<?xml version="1.0" encoding="utf-8"?>
<!-- Generator: Adobe Illustrator 16.0.5, SVG Export Plug-In . SVG Version: 6.00 Build 0)  -->
<!DOCTYPE svg PUBLIC "-//W3C//DTD SVG 1.1//EN" "http://www.w3.org/Graphics/SVG/1.1/DTD/svg11.dtd">
<svg version="1.1" id="Layer_1" xmlns="http://www.w3.org/2000/svg" xmlns:xlink="http://www.w3.org/1999/xlink" x="0px" y="0px"
	 width="305px" height="261px" viewBox="0 0 305 261" enable-background="new 0 0 305 261" xml:space="preserve">
<rect fill="#EBE5DC" width="305" height="261"/>
<path fill="#303030" d="M272.103,189.289c0,6.739-5.463,12.202-12.202,12.202H44.665c-6.739,0-12.202-5.463-12.202-12.202V46.724
	c0-6.739,5.463-12.202,12.202-12.202H259.9c6.739,0,12.202,5.463,12.202,12.202V189.289z"/>
<path fill="#231F20" d="M154.273,40.776c0,1.112-0.902,2.013-2.015,2.013c-1.111,0-2.013-0.9-2.013-2.013s0.902-2.013,2.013-2.013
	C153.371,38.764,154.273,39.664,154.273,40.776"/>
<path fill="#FAF8F6" d="M46.263,47.738c0,0-2.332,0-2.332,2.332v135.872c0,0,0,2.332,2.332,2.332h207.11c0,0,2.332,0,2.332-2.332
	V50.07c0,0,0-2.332-2.332-2.332H46.263z"/>
<circle fill="none" stroke="#8C7462" stroke-width="0.166" cx="263.987" cy="118.007" r="4.287"/>
<polygon fill="#D4C9C0" points="124.092,89.244 124.092,94.002 132.956,94.002 140.391,130.073 165.742,130.073 165.742,125.317 
	144.266,125.317 143.254,120.4 166.667,120.4 174.039,96.569 138.342,96.569 136.833,89.244 "/>
<path fill="#D6B396" d="M256.98,201.758c0.501-9.868,2.792-21.018,0.207-30.61c-2.164-7.979-6.674-15.636-12.593-21.411
	c-2.338-2.299-4.753-4.112-8.138-4.243c-0.311-0.021-5.655-0.565-11.797-1.201v0.003c-3.172-0.33-6.557-0.685-9.566-0.99v-0.004
	c-5.198-0.537-9.295-0.966-9.295-0.966c-2.025-9.578-5.421-27.54-7.191-37.166c-0.676-3.714-1.81-7.815-5.488-9.613
	c-1.051-0.513-2.092-0.776-3.092-0.807h-0.457c-2.815,0.095-5.233,1.972-6.455,4.88c-3.123,7.585-1.476,16.578-0.246,24.405
	c1.643,10.361,3.404,20.715,5.183,31.052c-3.751-3.894-11.415-9.542-17.938-9.542c-2.689,0-5.183,0.959-7.127,3.385
	c-1.004,1.246-1.44,2.283-1.469,3.19v0.19c0.057,1.854,1.834,3.187,3.883,4.749c2.6,2.001,5.644,4.773,7.163,7.741
	c4.335,8.42,8.31,17.043,12.576,25.519c0.239,0.47,0.466,0.943,0.696,1.416c1.587,3.245,3.131,6.578,5.068,9.598
	c0.953,1.487,10.85,10.695,10.85,10.695l16.996,15.83l0.302,0.903c0.717-0.546,1.366-1.172,1.968-1.841
	c-0.602,0.67-1.251,1.297-1.968,1.845l3.846,11.503c0,0,4.332,4.152,12.581,4.152c2.987,0,6.495-0.545,10.496-2.028
	c15.035-5.585,15.277-15.767,15.277-15.767l-4.955-10.568C256.599,208.913,256.615,208.896,256.98,201.758"/>
<circle fill="#A12834" cx="141.636" cy="127.812" r="5.138"/>
<circle fill="#A12834" cx="165.636" cy="127.812" r="5.138"/>
<path fill="#BB3643" d="M146.102,125.5c-0.521-1-1.309-1.678-2.275-2.136l0.44,2.136H146.102z"/>
<path fill="#BB3643" d="M140.391,130.5l-1.373-6.874c-1.503,0.896-2.521,2.416-2.521,4.292c0,2.838,2.3,5.298,5.138,5.298
	c2.022,0,3.754-1.717,4.593-2.717H140.391z"/>
<path fill="#BB3643" d="M165.636,122.765c-1.927,0-3.586,0.735-4.465,2.735h4.329v5h-4.457c0.839,1,2.571,2.664,4.593,2.664
	c2.838,0,5.138-2.361,5.138-5.199S168.474,122.765,165.636,122.765z"/>
</svg>
